<svg viewBox="0 0 230 230" xmlns="http://www.w3.org/2000/svg"><path d="m0 0h230v230h-230z"/><path d="m116.93 98c0-9.59-5.81-14-19.07-14h-5.81v28.43h5.81c13.38 0 19.07-4.5 19.07-14.45m16.23-.12c0 16.47-9.72 23.7-32.11 23.7h-9v18.71c0 2.85.59 3.56 2.25 3.56h6.52v9.35h-34.59v-9.35h5.92c1.66 0 2.25-.71 2.25-3.56v-52.83c0-3-.59-3.55-2.25-3.55h-5.92v-9.36h34.94c21.8 0 32 7.58 32 23.33m70.39 45.81a93.14 93.14 0 1 0 -3.67 9.51h-24.44v-9.35h5.09c2.13 0 3-.71 2-3.44l-5.22-13.86h-26.04l-5 13.86c-.83 2.73-.12 3.44 2 3.44h4.74v9.35h-27.32v-9.35h4.62c2.48 0 3.07-.71 4.14-3.68l24.64-66h17.53l24.29 66c.71 2.23 1.49 3.18 2.63 3.52m-39.12-54.81-10.3 29h20.61z" fill="#fff"/></svg>
